# xmcd
#
# Track frame offsets: 
#        150
#        21275
#        39610
#        61949
#        89347
#        106190
#        123470
#        143100
#        175824
#
# Disc length: 2504 seconds
#
# Revision: 0
# Processed by: cddbd v1.5.2PL0 Copyright (c) Steve Scherf et al.
# Submitted via: ExactAudioCopyFreeDBPlugin 1.0
#
DISCID=7409c609
DTITLE=Frank Boddin - BODDIN
DYEAR=2016
DGENRE=Chanson
TTITLE0=Je zou kunnen zeggen
TTITLE1=Dit is het huis
TTITLE2=Hoeveel uren
TTITLE3=Raam (met Kommil Foo)
TTITLE4=Top
TTITLE5=Bomen
TTITLE6=Nachten dat de spin niet spint (live)
TTITLE7=Weten
TTITLE8=Ze staat daar
EXTD=
EXTT0=
EXTT1=
EXTT2=
EXTT3=
EXTT4=
EXTT5=
EXTT6=
EXTT7=
EXTT8=
PLAYORDER=
